<svg xmlns="http://www.w3.org/2000/svg" width="44.72" height="44.72" viewBox="0 0 44.72 44.72">
  <g id="tag" transform="translate(0)">
    <circle id="Ellipse_4645" data-name="Ellipse 4645" cx="1.496" cy="1.496" r="1.496" transform="translate(20.863 28.802)" fill="#7c8ee9"/>
    <circle id="Ellipse_4646" data-name="Ellipse 4646" cx="1.496" cy="1.496" r="1.496" transform="translate(20.863 12.925)" fill="#7c8ee9"/>
    <path id="Path_95118" data-name="Path 95118" d="M43.514,1.207A4.087,4.087,0,0,0,40.6,0H24.926a4.09,4.09,0,0,0-2.911,1.206L1.206,22.014a4.116,4.116,0,0,0,0,5.822L16.883,43.513a4.116,4.116,0,0,0,5.822,0L43.513,22.705a4.09,4.09,0,0,0,1.206-2.911V4.117a4.086,4.086,0,0,0-1.206-2.91ZM22.36,10.3a4.117,4.117,0,1,1-4.117,4.117A4.121,4.121,0,0,1,22.36,10.3Zm0,24.11A4.117,4.117,0,1,1,26.477,30.3,4.121,4.121,0,0,1,22.36,34.415ZM30.78,23.67H13.94a1.31,1.31,0,1,1,0-2.62H30.78a1.31,1.31,0,1,1,0,2.62ZM36.393,9.637a1.31,1.31,0,1,1,1.31-1.31A1.311,1.311,0,0,1,36.393,9.637Z" transform="translate(0)" fill="#7c8ee9"/>
  </g>
</svg>
