<svg xmlns="http://www.w3.org/2000/svg" width="18.813" height="18.793" viewBox="0 0 18.813 18.793">
  <path id="exterior" d="M17.223,16.679h-1.39V9.729h1.39a.556.556,0,0,0,.4-.942L15.483,6.562V1.444a.556.556,0,0,0-.556-.556H11.7a.556.556,0,0,0-.556.556v.648L9.283.168a.556.556,0,0,0-.8,0L6.976,1.725A3.615,3.615,0,0,0,1.285,6.07,3.978,3.978,0,0,0-.014,9c0,.044,0,.086,0,.131a.5.5,0,0,0,0,.145,4.1,4.1,0,0,0,1.946,3.155v4.248H.542a.556.556,0,1,0,0,1.112H17.223a.556.556,0,1,0,0-1.112ZM1.1,9A2.93,2.93,0,0,1,2.352,6.629a.556.556,0,0,0,.111-.792,2.46,2.46,0,0,1-.531-1.543,2.5,2.5,0,1,1,5,0,2.46,2.46,0,0,1-.531,1.543.556.556,0,0,0,.111.8A2.93,2.93,0,0,1,7.771,9a3.208,3.208,0,0,1-3.336,3.041A3.2,3.2,0,0,1,1.1,9Zm1.946,3.942a4.579,4.579,0,0,0,.834.175v3.561H3.045Zm1.946,3.737V13.118A4.268,4.268,0,0,0,8.883,9a3.978,3.978,0,0,0-1.3-2.93,3.65,3.65,0,0,0,.464-1.777,3.589,3.589,0,0,0-.406-1.668l1.24-1.271,2.416,2.5a.556.556,0,0,0,.956-.386V2h2.116V6.8a.556.556,0,0,0,.156.386l1.39,1.432h-.639a.556.556,0,0,0-.556.556v7.506Z" transform="translate(0.519 0.502)" fill="#7c8ee9" stroke="#7c8ee9" stroke-width="1"/>
</svg>
