<svg xmlns="http://www.w3.org/2000/svg" width="20.251" height="18.22" viewBox="0 0 20.251 18.22">
  <g id="interior-design" transform="translate(0.25 0.254)">
    <path id="Path_95137" data-name="Path 95137" d="M19.172,2.726H10.4L.723.02a.542.542,0,0,0-.5.112A.652.652,0,0,0,0,.63V17.086a.652.652,0,0,0,.224.5.548.548,0,0,0,.355.132.534.534,0,0,0,.144-.02L10.4,14.99h8.768a.606.606,0,0,0,.579-.63v-11A.606.606,0,0,0,19.172,2.726ZM1.157,1.443l8.6,2.4V13.871l-8.6,2.4ZM13.965,13.729V12.22a.643.643,0,0,0,0-1.236V9.679h1.574v4.051Zm4.629,0H16.7V9.049a.606.606,0,0,0-.579-.63H13.386a.606.606,0,0,0-.579.63v4.681h-1.9V3.987h7.683Zm0,0" transform="translate(0 0)" fill="#7c8ee9" stroke="#7c8ee9" stroke-width="0.5"/>
    <path id="Path_95138" data-name="Path 95138" d="M85.267,117.534l-4.451-.978a.63.63,0,0,0-.766.616v6.662a.63.63,0,0,0,.766.615l4.451-.978a.63.63,0,0,0,.5-.616V118.15A.63.63,0,0,0,85.267,117.534Zm-3.956.422.965.212v1.785a.63.63,0,0,0,0,1.058v1.827l-.965.212Zm3.19,4.394-.965.212v-1.55a.629.629,0,0,0,0-1.058v-1.508l.965.212Zm0,0" transform="translate(-77.062 -111.645)" fill="#7c8ee9" stroke="#7c8ee9" stroke-width="0.5"/>
  </g>
</svg>
