<svg xmlns="http://www.w3.org/2000/svg" width="233.633" height="59.935" viewBox="0 0 233.633 59.935">
  <g id="logo" transform="translate(-109 -41)">
    <g id="Group_39418" data-name="Group 39418" transform="translate(109 41)">
      <path id="Path_95142" data-name="Path 95142" d="M-12243.094-720l-52.186,59.934h17.172l40.844-47.96,12.32,14.261h4.975Z" transform="translate(12326.659 720)" fill="#7c8ee9"/>
      <path id="Path_95144" data-name="Path 95144" d="M-12243.094-720l-52.186,59.934h17.172l40.844-47.96,7.46,7.933h4.974Z" transform="translate(12295.279 720)" fill="#7c8ee9"/>
      <path id="Path_95143" data-name="Path 95143" d="M-12375.963-683.029h18.621v6.956l-18.621,18.62Z" transform="translate(12382.419 698.611)" fill="#7c8ee9"/>
    </g>
    <path id="Path_95145" data-name="Path 95145" d="M2.851-7.282V-36.172H8.615a7.833,7.833,0,0,1,3.527.657,3.71,3.71,0,0,1,1.818,2.093,11.213,11.213,0,0,1,.553,3.767v.739a11.838,11.838,0,0,1-.519,3.825,3.482,3.482,0,0,1-1.86,2.117,3.386,3.386,0,0,1,1.734,1.412,6.936,6.936,0,0,1,.9,2.413,16.468,16.468,0,0,1,.268,3.069v.657A15.715,15.715,0,0,1,14.4-10.77a4.772,4.772,0,0,1-1.919,2.643,6.535,6.535,0,0,1-3.552.845ZM6.738-10.3h1.91a2.241,2.241,0,0,0,1.483-.443,2.627,2.627,0,0,0,.754-1.51,14.993,14.993,0,0,0,.226-2.955V-16.77a10.4,10.4,0,0,0-.427-3.513,1.732,1.732,0,0,0-1.8-1.083H6.738Zm0-13.969H8.581a3.044,3.044,0,0,0,1.064-.156,1.18,1.18,0,0,0,.637-.6,3.636,3.636,0,0,0,.3-1.289q.075-.845.075-2.241v-1.2a7.409,7.409,0,0,0-.235-2.15,1.529,1.529,0,0,0-.737-.968,3.027,3.027,0,0,0-1.324-.246H6.738Zm19.9,17.334a6.668,6.668,0,0,1-3.577-.845,4.761,4.761,0,0,1-1.952-2.569,13.342,13.342,0,0,1-.6-4.35v-21.47h3.9v21.388a23.737,23.737,0,0,0,.109,2.446,2.9,2.9,0,0,0,.578,1.592,1.91,1.91,0,0,0,1.542.558,1.9,1.9,0,0,0,1.533-.55,2.853,2.853,0,0,0,.561-1.584q.1-1.034.1-2.446v-21.4h3.887V-14.7a13.7,13.7,0,0,1-.586,4.35,4.711,4.711,0,0,1-1.919,2.569A6.615,6.615,0,0,1,26.642-6.937Zm12.6-.345V-36.172h3.9V-7.282Zm10.655,0V-36.172h3.887v25.689h5.546v3.2ZM64-7.282V-36.172h6a6.182,6.182,0,0,1,3.594.919,4.991,4.991,0,0,1,1.877,2.635,13.3,13.3,0,0,1,.561,4.112l.017,12.836a15.425,15.425,0,0,1-.612,4.744,5.04,5.04,0,0,1-1.969,2.749,6.455,6.455,0,0,1-3.6.895Zm3.887-3.02h1.642A2.676,2.676,0,0,0,71-10.672a2.3,2.3,0,0,0,.871-1.338,10.166,10.166,0,0,0,.293-2.79l-.017-13.706a7.751,7.751,0,0,0-.612-3.595,2.166,2.166,0,0,0-2.053-1.083H67.889Zm14.576,3.02V-36.172h3.9V-7.282Zm10.655,0V-36.172h3l6.585,18.7-.335-8.158V-36.172h3.468V-7.282h-2.815L96.488-26.323l.218,7.4V-7.282ZM117.766-7a4.754,4.754,0,0,1-4.08-2.06q-1.483-2.06-1.483-6.755V-28.128a17.113,17.113,0,0,1,.318-3.447,7.567,7.567,0,0,1,1.039-2.643A4.691,4.691,0,0,1,115.5-35.9a6.885,6.885,0,0,1,2.991-.583,6.67,6.67,0,0,1,3.041.591,4.111,4.111,0,0,1,1.759,1.7,7.582,7.582,0,0,1,.821,2.676,26.626,26.626,0,0,1,.209,3.5v2.15h-3.7V-29.31a7.7,7.7,0,0,0-.419-2.963,1.652,1.652,0,0,0-1.676-.927,1.912,1.912,0,0,0-1.885,1.092,9.877,9.877,0,0,0-.528,3.882v12.311a15.268,15.268,0,0,0,.444,4.391,1.8,1.8,0,0,0,1.868,1.321,1.893,1.893,0,0,0,1.893-1.338,13.6,13.6,0,0,0,.519-4.473v-3.825h-2.346V-22.7h5.831V-7.282h-1.91l-.553-2.479a3.755,3.755,0,0,1-1.525,2.044A4.569,4.569,0,0,1,117.766-7Z" transform="translate(218.315 107.872)" fill="#7c8ee9"/>
    <path id="Path_95146" data-name="Path 95146" d="M4-23.875V-53.281H8.435v11.9H12.41v-11.9h4.439v29.407H12.41V-37.542H8.435v13.667Zm17.225,0V-53.281H25.66v13.534L30.1-53.281h4.588l-4.836,14.5,5.217,14.9H30.38L25.693-37.609v13.734Z" transform="translate(181.224 124.809)" fill="#b87c78"/>
  </g>
</svg>
