<svg xmlns="http://www.w3.org/2000/svg" width="234.649" height="59.935" viewBox="0 0 234.649 59.935">
  <g id="Group_39421" data-name="Group 39421" transform="translate(-109 -41)">
    <g id="Group_39418" data-name="Group 39418" transform="translate(109 41)">
      <path id="Path_95142" data-name="Path 95142" d="M-12243.094-720l-52.186,59.934h17.172l40.844-47.96,12.32,14.261h4.975Z" transform="translate(12326.659 720)" fill="#fff"/>
      <path id="Path_95144" data-name="Path 95144" d="M-12243.094-720l-52.186,59.934h17.172l40.844-47.96,7.46,7.933h4.974Z" transform="translate(12295.279 720)" fill="#fff"/>
      <path id="Path_95143" data-name="Path 95143" d="M-12375.963-683.029h18.621v6.956l-18.621,18.62Z" transform="translate(12382.419 698.611)" fill="#fff"/>
    </g>
    <path id="Path_95145" data-name="Path 95145" d="M2.851-7.038V-36.169H8.663a7.9,7.9,0,0,1,3.557.662,3.741,3.741,0,0,1,1.833,2.11,11.307,11.307,0,0,1,.558,3.8v.745A11.937,11.937,0,0,1,14.087-25a3.511,3.511,0,0,1-1.875,2.135,3.414,3.414,0,0,1,1.749,1.423,6.994,6.994,0,0,1,.9,2.433,16.606,16.606,0,0,1,.27,3.1v.662a15.847,15.847,0,0,1-.634,4.692A4.812,4.812,0,0,1,12.566-7.89a6.59,6.59,0,0,1-3.582.852Zm3.92-3.046H8.7a2.26,2.26,0,0,0,1.5-.447,2.649,2.649,0,0,0,.76-1.523,15.119,15.119,0,0,0,.228-2.979V-16.6a10.485,10.485,0,0,0-.431-3.542,1.747,1.747,0,0,0-1.816-1.092H6.771Zm0-14.086H8.629A3.069,3.069,0,0,0,9.7-24.326a1.19,1.19,0,0,0,.642-.6,3.666,3.666,0,0,0,.3-1.3q.076-.852.076-2.259V-29.7a7.471,7.471,0,0,0-.237-2.168,1.541,1.541,0,0,0-.743-.977,3.052,3.052,0,0,0-1.335-.248H6.771ZM26.841-6.69a6.724,6.724,0,0,1-3.607-.852,4.8,4.8,0,0,1-1.968-2.59,13.454,13.454,0,0,1-.608-4.386v-21.65h3.937V-14.6a23.936,23.936,0,0,0,.11,2.466,2.925,2.925,0,0,0,.583,1.606,1.926,1.926,0,0,0,1.554.563,1.915,1.915,0,0,0,1.546-.554,2.876,2.876,0,0,0,.566-1.6q.1-1.043.1-2.466V-36.169h3.92v21.65a13.81,13.81,0,0,1-.591,4.386,4.75,4.75,0,0,1-1.935,2.59A6.671,6.671,0,0,1,26.841-6.69Zm12.7-.348V-36.169h3.937V-7.038Zm10.744,0V-36.169h3.92v25.9H59.8v3.228Zm14.225,0V-36.169h6.049a6.234,6.234,0,0,1,3.624.927,5.033,5.033,0,0,1,1.892,2.657,13.406,13.406,0,0,1,.566,4.146L76.662-15.5a15.554,15.554,0,0,1-.617,4.783A5.082,5.082,0,0,1,74.06-7.94a6.509,6.509,0,0,1-3.633.9Zm3.92-3.046h1.656a2.7,2.7,0,0,0,1.478-.372,2.318,2.318,0,0,0,.879-1.349,10.251,10.251,0,0,0,.3-2.814l-.017-13.821a7.816,7.816,0,0,0-.617-3.625,2.184,2.184,0,0,0-2.07-1.092H68.434Zm14.7,3.046V-36.169h3.937V-7.038Zm10.744,0V-36.169H96.9l6.64,18.853-.338-8.226V-36.169h3.5V-7.038h-2.839l-6.59-19.2.22,7.465V-7.038Zm24.852.281a4.794,4.794,0,0,1-4.114-2.077q-1.5-2.077-1.5-6.811V-28.059a17.256,17.256,0,0,1,.321-3.476,7.63,7.63,0,0,1,1.048-2.665,4.73,4.73,0,0,1,1.952-1.7,6.942,6.942,0,0,1,3.016-.588,6.726,6.726,0,0,1,3.067.6,4.145,4.145,0,0,1,1.774,1.713,7.646,7.646,0,0,1,.828,2.7,26.847,26.847,0,0,1,.211,3.534v2.168H121.6V-29.25a7.759,7.759,0,0,0-.422-2.988,1.666,1.666,0,0,0-1.69-.935,1.928,1.928,0,0,0-1.9,1.1,9.96,9.96,0,0,0-.532,3.914v12.414a15.4,15.4,0,0,0,.448,4.428,1.812,1.812,0,0,0,1.884,1.332,1.908,1.908,0,0,0,1.909-1.349,13.713,13.713,0,0,0,.524-4.51V-19.7h-2.365v-2.88h5.88V-7.038h-1.926l-.558-2.5a3.786,3.786,0,0,1-1.538,2.061A4.608,4.608,0,0,1,118.728-6.756Z" transform="translate(218.315 107.625)" fill="#fff"/>
    <path id="Path_95146" data-name="Path 95146" d="M4-23.875V-53.281H8.435v11.9H12.41v-11.9h4.439v29.407H12.41V-37.542H8.435v13.667Zm17.225,0V-53.281H25.66v13.534L30.1-53.281h4.588l-4.836,14.5,5.217,14.9H30.38L25.693-37.609v13.734Z" transform="translate(181.224 124.809)" fill="#fff"/>
  </g>
</svg>
