<svg xmlns="http://www.w3.org/2000/svg" width="40.586" height="44" viewBox="0 0 40.586 44">
  <g id="management" transform="translate(-19.864)">
    <g id="Group_39396" data-name="Group 39396" transform="translate(19.864 29.126)">
      <g id="Group_39395" data-name="Group 39395">
        <path id="Path_95130" data-name="Path 95130" d="M24.694,338.915l-4.83,4.83L29.909,353.79l4.83-4.83Zm6.116,12.09a1.144,1.144,0,1,1,1.144-1.144A1.144,1.144,0,0,1,30.81,351.005Z" transform="translate(-19.864 -338.915)" fill="#7c8ee9"/>
      </g>
    </g>
    <g id="Group_39398" data-name="Group 39398" transform="translate(27.542 17.379)">
      <g id="Group_39397" data-name="Group 39397">
        <path id="Path_95131" data-name="Path 95131" d="M141.144,203.022a3.078,3.078,0,0,0-4.257.128l-6.722,6.722-.013,0a2.942,2.942,0,0,0,.469-1.492,3.03,3.03,0,0,0-3.028-3.141H120.34a7.8,7.8,0,0,0-5.516,2.285l-5.621,5.621,6.712,6.712,1.194-1.194h9.6a7.8,7.8,0,0,0,5.516-2.285l9-9A3.03,3.03,0,0,0,141.144,203.022Z" transform="translate(-109.203 -202.229)" fill="#7c8ee9"/>
      </g>
    </g>
    <g id="Group_39400" data-name="Group 39400" transform="translate(31.064)">
      <g id="Group_39399" data-name="Group 39399">
        <path id="Path_95132" data-name="Path 95132" d="M171.014,10.043a8.862,8.862,0,0,0-1.038-2.5L172.19,4.8l-2.474-2.474L166.977,4.54a8.862,8.862,0,0,0-2.5-1.038L164.1,0h-3.5l-.371,3.5a8.862,8.862,0,0,0-2.5,1.038l-2.739-2.214L152.515,4.8l2.214,2.739a8.863,8.863,0,0,0-1.038,2.5l-3.5.371v3.5l3.5.371a8.863,8.863,0,0,0,1.038,2.5l-1.822,2.254q.45-.24.925-.437a10.328,10.328,0,0,1,3.972-.79h7.252a5.562,5.562,0,0,1,4.036,1.714q.1.1.185.2l1.7-1.7-1-1.241a8.862,8.862,0,0,0,1.038-2.5l3.5-.371v-3.5Zm-8.661,6.219a4.1,4.1,0,1,1,4.1-4.1A4.1,4.1,0,0,1,162.353,16.261Z" transform="translate(-150.19)" fill="#7c8ee9"/>
      </g>
    </g>
  </g>
</svg>
