<svg xmlns="http://www.w3.org/2000/svg" width="19.907" height="18.545" viewBox="0 0 19.907 18.545">
  <g id="staircase" transform="translate(0.5 -54)">
    <path id="Path_95139" data-name="Path 95139" d="M18.169,54.5H13.811a.813.813,0,0,0-.739.871V58.6H9.454a.813.813,0,0,0-.739.871v3.239H5.1a.813.813,0,0,0-.739.871v3.239H.739A.813.813,0,0,0,0,67.694v3.481a.813.813,0,0,0,.739.871h17.43a.813.813,0,0,0,.739-.871v-15.8A.813.813,0,0,0,18.169,54.5ZM17.43,70.3H1.477V68.565H5.1a.813.813,0,0,0,.739-.871V64.455H9.454a.813.813,0,0,0,.739-.871V60.345h3.619a.813.813,0,0,0,.739-.871V56.241h2.88Z" fill="#7c8ee9" stroke="#7c8ee9" stroke-width="1"/>
  </g>
</svg>
