<svg xmlns="http://www.w3.org/2000/svg" width="48.924" height="41.586" viewBox="0 0 48.924 41.586">
  <g id="user-group" transform="translate(0 -29.114)">
    <path id="Path_95119" data-name="Path 95119" d="M136.048,49.452c4.624,0,8.372-4.553,8.372-10.169s-1.231-10.169-8.372-10.169-8.372,4.553-8.372,10.169S131.424,49.452,136.048,49.452Z" transform="translate(-111.585 0)" fill="#7c8ee9"/>
    <path id="Path_95120" data-name="Path 95120" d="M100.24,211.032c-.155-9.784-1.433-12.572-11.211-14.336a6.869,6.869,0,0,1-9.169,0c-9.671,1.745-11.027,4.492-11.205,14.018-.014.778-.021.819-.024.728,0,.169,0,.482,0,1.028,0,0,2.328,4.693,15.812,4.693s15.813-4.693,15.813-4.693c0-.351,0-.595,0-.76A6.148,6.148,0,0,1,100.24,211.032Z" transform="translate(-59.982 -146.463)" fill="#7c8ee9"/>
    <path id="Path_95121" data-name="Path 95121" d="M264.8,61.537c3.756,0,6.8-3.7,6.8-8.259s-1-8.259-6.8-8.259a9.7,9.7,0,0,0-2.537.3,16.669,16.669,0,0,1,1.523,7.864,13.944,13.944,0,0,1-2.088,7.443A5.824,5.824,0,0,0,264.8,61.537Z" transform="translate(-228.715 -13.9)" fill="#7c8ee9"/>
    <path id="Path_95122" data-name="Path 95122" d="M296.956,192.769c-.126-7.946-1.164-10.21-9.105-11.644a4.761,4.761,0,0,1-3.724,1.425c-.108,0-.212,0-.315-.008a10.447,10.447,0,0,1,4.271,3.307c1.917,2.629,2.358,6.161,2.449,11.35,5.343-1.056,6.438-3.261,6.438-3.261,0-.287,0-.484,0-.619A4.752,4.752,0,0,1,296.956,192.769Z" transform="translate(-248.046 -132.855)" fill="#7c8ee9"/>
    <path id="Path_95123" data-name="Path 95123" d="M54.755,61.537a5.827,5.827,0,0,0,3.1-.911,13.944,13.944,0,0,1-2.088-7.443,16.671,16.671,0,0,1,1.523-7.864,9.693,9.693,0,0,0-2.537-.3c-5.8,0-6.8,3.7-6.8,8.259S51,61.537,54.755,61.537Z" transform="translate(-41.912 -13.901)" fill="#7c8ee9"/>
    <path id="Path_95124" data-name="Path 95124" d="M13.158,182.541c-.1,0-.207.008-.315.008a4.761,4.761,0,0,1-3.723-1.425c-7.941,1.433-8.979,3.7-9.1,11.644a4.823,4.823,0,0,1-.014.549c0,.135,0,.332,0,.619,0,0,1.1,2.2,6.438,3.26.091-5.188.532-8.72,2.45-11.35A10.447,10.447,0,0,1,13.158,182.541Z" transform="translate(0 -132.854)" fill="#7c8ee9"/>
  </g>
</svg>
